<?xml version="1.0" encoding="UTF-8" standalone="no"?>
<!-- Created with Inkscape (http://www.inkscape.org/) -->

<svg
   xmlns:dc="http://purl.org/dc/elements/1.1/"
   xmlns:cc="http://creativecommons.org/ns#"
   xmlns:rdf="http://www.w3.org/1999/02/22-rdf-syntax-ns#"
   xmlns:svg="http://www.w3.org/2000/svg"
   xmlns="http://www.w3.org/2000/svg"
   xmlns:xlink="http://www.w3.org/1999/xlink"
   version="1.1"
   width="85"
   height="350.35999"
   id="svg3838">
  <defs
     id="defs3840">
    <clipPath
       id="clip3">
      <path
         d="m 375,14.648438 13.95312,0 0,264.699222 -13.95312,0 z m 0,0"
         id="path3523" />
    </clipPath>
    <filter
       color-interpolation-filters="sRGB"
       id="filter5247">
      <feGaussianBlur
         id="feGaussianBlur5249"
         stdDeviation="0.3458203" />
    </filter>
  </defs>
  <metadata
     id="metadata3843">
    <rdf:RDF>
      <cc:Work
         rdf:about="">
        <dc:format>image/svg+xml</dc:format>
        <dc:type
           rdf:resource="http://purl.org/dc/dcmitype/StillImage" />
        <dc:title></dc:title>
      </cc:Work>
    </rdf:RDF>
  </metadata>
  <g
     transform="translate(0,-702.00212)"
     id="layer1">
    <g
       transform="matrix(1.25,0,0,1.25,-458.91616,696.29892)"
       clip-path="url(#clip3)"
       id="g3534"
       style="filter:url(#filter5247)">
      <path
         d="m 375,278.35156 12.95312,0 0,-4.12109 -12.95312,0 z m 0,0"
         id="path3536"
         style="fill:#00008f;fill-opacity:1;fill-rule:nonzero;stroke:none" />
      <path
         d="m 375,274.23047 12.95312,0 0,-4.1211 -12.95312,0 z m 0,0"
         id="path3538"
         style="fill:#00009e;fill-opacity:1;fill-rule:nonzero;stroke:none" />
      <path
         d="m 375,270.10937 12.95312,0 0,-4.12109 -12.95312,0 z m 0,0"
         id="path3540"
         style="fill:#0000ae;fill-opacity:1;fill-rule:nonzero;stroke:none" />
      <path
         d="m 375,265.98828 12.95312,0 0,-4.12109 -12.95312,0 z m 0,0"
         id="path3542"
         style="fill:#0000bd;fill-opacity:1;fill-rule:nonzero;stroke:none" />
      <path
         d="m 375,261.86719 12.95312,0 0,-4.1211 -12.95312,0 z m 0,0"
         id="path3544"
         style="fill:#0000cf;fill-opacity:1;fill-rule:nonzero;stroke:none" />
      <path
         d="m 375,257.75 12.95312,0 0,-4.12109 -12.95312,0 z m 0,0"
         id="path3546"
         style="fill:#0000de;fill-opacity:1;fill-rule:nonzero;stroke:none" />
      <path
         d="m 375,253.62891 12.95312,0 0,-4.1211 -12.95312,0 z m 0,0"
         id="path3548"
         style="fill:#0000ee;fill-opacity:1;fill-rule:nonzero;stroke:none" />
      <path
         d="m 375,249.50781 12.95312,0 0,-4.12109 -12.95312,0 z m 0,0"
         id="path3550"
         style="fill:#0000ff;fill-opacity:1;fill-rule:nonzero;stroke:none" />
      <path
         d="m 375,245.38672 12.95312,0 0,-4.1211 -12.95312,0 z m 0,0"
         id="path3552"
         style="fill:#000fff;fill-opacity:1;fill-rule:nonzero;stroke:none" />
      <path
         d="m 375,241.26562 12.95312,0 0,-4.12109 -12.95312,0 z m 0,0"
         id="path3554"
         style="fill:#001eff;fill-opacity:1;fill-rule:nonzero;stroke:none" />
      <path
         d="m 375,237.14844 12.95312,0 0,-4.1211 -12.95312,0 z m 0,0"
         id="path3556"
         style="fill:#002eff;fill-opacity:1;fill-rule:nonzero;stroke:none" />
      <path
         d="m 375,233.02734 12.95312,0 0,-4.12109 -12.95312,0 z m 0,0"
         id="path3558"
         style="fill:#003fff;fill-opacity:1;fill-rule:nonzero;stroke:none" />
      <path
         d="m 375,228.90625 12.95312,0 0,-4.12109 -12.95312,0 z m 0,0"
         id="path3560"
         style="fill:#004fff;fill-opacity:1;fill-rule:nonzero;stroke:none" />
      <path
         d="m 375,224.78516 12.95312,0 0,-4.1211 -12.95312,0 z m 0,0"
         id="path3562"
         style="fill:#005eff;fill-opacity:1;fill-rule:nonzero;stroke:none" />
      <path
         d="m 375,220.66406 12.95312,0 0,-4.12109 -12.95312,0 z m 0,0"
         id="path3564"
         style="fill:#006eff;fill-opacity:1;fill-rule:nonzero;stroke:none" />
      <path
         d="m 375,216.54687 12.95312,0 0,-4.12109 -12.95312,0 z m 0,0"
         id="path3566"
         style="fill:#007fff;fill-opacity:1;fill-rule:nonzero;stroke:none" />
      <path
         d="m 375,212.42578 12.95312,0 0,-4.12109 -12.95312,0 z m 0,0"
         id="path3568"
         style="fill:#008fff;fill-opacity:1;fill-rule:nonzero;stroke:none" />
      <path
         d="m 375,208.30469 12.95312,0 0,-4.1211 -12.95312,0 z m 0,0"
         id="path3570"
         style="fill:#009eff;fill-opacity:1;fill-rule:nonzero;stroke:none" />
      <path
         d="m 375,204.18359 12.95312,0 0,-4.12109 -12.95312,0 z m 0,0"
         id="path3572"
         style="fill:#00aeff;fill-opacity:1;fill-rule:nonzero;stroke:none" />
      <path
         d="m 375,200.0625 12.95312,0 0,-4.12109 -12.95312,0 z m 0,0"
         id="path3574"
         style="fill:#00bdff;fill-opacity:1;fill-rule:nonzero;stroke:none" />
      <path
         d="m 375,195.94531 12.95312,0 0,-4.12109 -12.95312,0 z m 0,0"
         id="path3576"
         style="fill:#00cfff;fill-opacity:1;fill-rule:nonzero;stroke:none" />
      <path
         d="m 375,191.82422 12.95312,0 0,-4.1211 -12.95312,0 z m 0,0"
         id="path3578"
         style="fill:#00deff;fill-opacity:1;fill-rule:nonzero;stroke:none" />
      <path
         d="m 375,187.70312 12.95312,0 0,-4.12109 -12.95312,0 z m 0,0"
         id="path3580"
         style="fill:#00eeff;fill-opacity:1;fill-rule:nonzero;stroke:none" />
      <path
         d="m 375,183.58203 12.95312,0 0,-4.12109 -12.95312,0 z m 0,0"
         id="path3582"
         style="fill:#00ffff;fill-opacity:1;fill-rule:nonzero;stroke:none" />
      <path
         d="m 375,179.46094 12.95312,0 0,-4.1211 -12.95312,0 z m 0,0"
         id="path3584"
         style="fill:#0fffee;fill-opacity:1;fill-rule:nonzero;stroke:none" />
      <path
         d="m 375,175.34375 12.95312,0 0,-4.12109 -12.95312,0 z m 0,0"
         id="path3586"
         style="fill:#1effde;fill-opacity:1;fill-rule:nonzero;stroke:none" />
      <path
         d="m 375,171.22266 12.95312,0 0,-4.1211 -12.95312,0 z m 0,0"
         id="path3588"
         style="fill:#2effcf;fill-opacity:1;fill-rule:nonzero;stroke:none" />
      <path
         d="m 375,167.10156 12.95312,0 0,-4.12109 -12.95312,0 z m 0,0"
         id="path3590"
         style="fill:#3fffbd;fill-opacity:1;fill-rule:nonzero;stroke:none" />
      <path
         d="m 375,162.98047 12.95312,0 0,-4.1211 -12.95312,0 z m 0,0"
         id="path3592"
         style="fill:#4fffae;fill-opacity:1;fill-rule:nonzero;stroke:none" />
      <path
         d="m 375,158.85937 12.95312,0 0,-4.12109 -12.95312,0 z m 0,0"
         id="path3594"
         style="fill:#5eff9e;fill-opacity:1;fill-rule:nonzero;stroke:none" />
      <path
         d="m 375,154.74219 12.95312,0 0,-4.1211 -12.95312,0 z m 0,0"
         id="path3596"
         style="fill:#6eff8f;fill-opacity:1;fill-rule:nonzero;stroke:none" />
      <path
         d="m 375,150.62109 12.95312,0 0,-4.12109 -12.95312,0 z m 0,0"
         id="path3598"
         style="fill:#7fff7f;fill-opacity:1;fill-rule:nonzero;stroke:none" />
      <path
         d="m 375,146.5 12.95312,0 0,-4.12109 -12.95312,0 z m 0,0"
         id="path3600"
         style="fill:#8fff6e;fill-opacity:1;fill-rule:nonzero;stroke:none" />
      <path
         d="m 375,142.37891 12.95312,0 0,-4.1211 -12.95312,0 z m 0,0"
         id="path3602"
         style="fill:#9eff5e;fill-opacity:1;fill-rule:nonzero;stroke:none" />
      <path
         d="m 375,138.25781 12.95312,0 0,-4.12109 -12.95312,0 z m 0,0"
         id="path3604"
         style="fill:#aeff4f;fill-opacity:1;fill-rule:nonzero;stroke:none" />
      <path
         d="m 375,134.14062 12.95312,0 0,-4.12109 -12.95312,0 z m 0,0"
         id="path3606"
         style="fill:#bdff3f;fill-opacity:1;fill-rule:nonzero;stroke:none" />
      <path
         d="m 375,130.01953 12.95312,0 0,-4.12109 -12.95312,0 z m 0,0"
         id="path3608"
         style="fill:#cfff2e;fill-opacity:1;fill-rule:nonzero;stroke:none" />
      <path
         d="m 375,125.89844 12.95312,0 0,-4.1211 -12.95312,0 z m 0,0"
         id="path3610"
         style="fill:#deff1e;fill-opacity:1;fill-rule:nonzero;stroke:none" />
      <path
         d="m 375,121.77734 12.95312,0 0,-4.12109 -12.95312,0 z m 0,0"
         id="path3612"
         style="fill:#eeff0f;fill-opacity:1;fill-rule:nonzero;stroke:none" />
      <path
         d="m 375,117.65625 12.95312,0 0,-4.12109 -12.95312,0 z m 0,0"
         id="path3614"
         style="fill:#ffff00;fill-opacity:1;fill-rule:nonzero;stroke:none" />
      <path
         d="m 375,113.53906 12.95312,0 0,-4.12109 -12.95312,0 z m 0,0"
         id="path3616"
         style="fill:#ffee00;fill-opacity:1;fill-rule:nonzero;stroke:none" />
      <path
         d="m 375,109.41797 12.95312,0 0,-4.12109 -12.95312,0 z m 0,0"
         id="path3618"
         style="fill:#ffde00;fill-opacity:1;fill-rule:nonzero;stroke:none" />
      <path
         d="m 375,105.29688 12.95312,0 0,-4.1211 -12.95312,0 z m 0,0"
         id="path3620"
         style="fill:#ffcf00;fill-opacity:1;fill-rule:nonzero;stroke:none" />
      <path
         d="m 375,101.17578 12.95312,0 0,-4.121092 -12.95312,0 z m 0,0"
         id="path3622"
         style="fill:#ffbd00;fill-opacity:1;fill-rule:nonzero;stroke:none" />
      <path
         d="m 375,97.054688 12.95312,0 0,-4.121094 -12.95312,0 z m 0,0"
         id="path3624"
         style="fill:#ffae00;fill-opacity:1;fill-rule:nonzero;stroke:none" />
      <path
         d="m 375,92.9375 12.95312,0 0,-4.121094 -12.95312,0 z m 0,0"
         id="path3626"
         style="fill:#ff9e00;fill-opacity:1;fill-rule:nonzero;stroke:none" />
      <path
         d="m 375,88.816406 12.95312,0 0,-4.121094 -12.95312,0 z m 0,0"
         id="path3628"
         style="fill:#ff8f00;fill-opacity:1;fill-rule:nonzero;stroke:none" />
      <path
         d="m 375,84.695312 12.95312,0 0,-4.121093 -12.95312,0 z m 0,0"
         id="path3630"
         style="fill:#ff7f00;fill-opacity:1;fill-rule:nonzero;stroke:none" />
      <path
         d="m 375,80.574219 12.95312,0 0,-4.121094 -12.95312,0 z m 0,0"
         id="path3632"
         style="fill:#ff6e00;fill-opacity:1;fill-rule:nonzero;stroke:none" />
      <path
         d="m 375,76.453125 12.95312,0 0,-4.121094 -12.95312,0 z m 0,0"
         id="path3634"
         style="fill:#ff5e00;fill-opacity:1;fill-rule:nonzero;stroke:none" />
      <path
         d="m 375,72.335938 12.95312,0 0,-4.121094 -12.95312,0 z m 0,0"
         id="path3636"
         style="fill:#ff4f00;fill-opacity:1;fill-rule:nonzero;stroke:none" />
      <path
         d="m 375,68.214844 12.95312,0 0,-4.121094 -12.95312,0 z m 0,0"
         id="path3638"
         style="fill:#ff3f00;fill-opacity:1;fill-rule:nonzero;stroke:none" />
      <path
         d="m 375,64.09375 12.95312,0 0,-4.121094 -12.95312,0 z m 0,0"
         id="path3640"
         style="fill:#ff2e00;fill-opacity:1;fill-rule:nonzero;stroke:none" />
      <path
         d="m 375,59.972656 12.95312,0 0,-4.121094 -12.95312,0 z m 0,0"
         id="path3642"
         style="fill:#ff1e00;fill-opacity:1;fill-rule:nonzero;stroke:none" />
      <path
         d="m 375,55.851562 12.95312,0 0,-4.121093 -12.95312,0 z m 0,0"
         id="path3644"
         style="fill:#ff0f00;fill-opacity:1;fill-rule:nonzero;stroke:none" />
      <path
         d="m 375,51.734375 12.95312,0 0,-4.121094 -12.95312,0 z m 0,0"
         id="path3646"
         style="fill:#ff0000;fill-opacity:1;fill-rule:nonzero;stroke:none" />
      <path
         d="m 375,47.613281 12.95312,0 0,-4.121093 -12.95312,0 z m 0,0"
         id="path3648"
         style="fill:#ee0000;fill-opacity:1;fill-rule:nonzero;stroke:none" />
      <path
         d="m 375,43.492188 12.95312,0 0,-4.121094 -12.95312,0 z m 0,0"
         id="path3650"
         style="fill:#de0000;fill-opacity:1;fill-rule:nonzero;stroke:none" />
      <path
         d="m 375,39.371094 12.95312,0 0,-4.121094 -12.95312,0 z m 0,0"
         id="path3652"
         style="fill:#cf0000;fill-opacity:1;fill-rule:nonzero;stroke:none" />
      <path
         d="m 375,35.25 12.95312,0 0,-4.121094 -12.95312,0 z m 0,0"
         id="path3654"
         style="fill:#bd0000;fill-opacity:1;fill-rule:nonzero;stroke:none" />
      <path
         d="m 375,31.132812 12.95312,0 0,-4.121093 -12.95312,0 z m 0,0"
         id="path3656"
         style="fill:#ae0000;fill-opacity:1;fill-rule:nonzero;stroke:none" />
      <path
         d="m 375,27.011719 12.95312,0 0,-4.121094 -12.95312,0 z m 0,0"
         id="path3658"
         style="fill:#9e0000;fill-opacity:1;fill-rule:nonzero;stroke:none" />
      <path
         d="m 375,22.890625 12.95312,0 0,-4.121094 -12.95312,0 z m 0,0"
         id="path3660"
         style="fill:#8f0000;fill-opacity:1;fill-rule:nonzero;stroke:none" />
      <path
         d="m 375,18.769531 12.95312,0 0,-4.121093 -12.95312,0 z m 0,0"
         id="path3662"
         style="fill:#7f0000;fill-opacity:1;fill-rule:nonzero;stroke:none" />
    </g>
    <path
       d="m 26.020356,1015.9669 0,-282.69532"
       id="path3664"
       style="fill:none;stroke:#000000;stroke-width:0.9375;stroke-linecap:round;stroke-linejoin:round;stroke-miterlimit:10;stroke-opacity:1" />
    <path
       d="m 26.020356,1015.9669 9.0039,0"
       id="path3666"
       style="fill:none;stroke:#000000;stroke-width:0.9375;stroke-linecap:round;stroke-linejoin:round;stroke-miterlimit:10;stroke-opacity:1" />
    <path
       d="m 26.020356,959.42881 9.0039,0"
       id="path3668"
       style="fill:none;stroke:#000000;stroke-width:0.9375;stroke-linecap:round;stroke-linejoin:round;stroke-miterlimit:10;stroke-opacity:1" />
    <path
       d="m 26.020356,902.88584 9.0039,0"
       id="path3670"
       style="fill:none;stroke:#000000;stroke-width:0.9375;stroke-linecap:round;stroke-linejoin:round;stroke-miterlimit:10;stroke-opacity:1" />
    <path
       d="m 26.020356,846.34775 9.0039,0"
       id="path3672"
       style="fill:none;stroke:#000000;stroke-width:0.9375;stroke-linecap:round;stroke-linejoin:round;stroke-miterlimit:10;stroke-opacity:1" />
    <path
       d="m 26.020356,789.80966 9.0039,0"
       id="path3674"
       style="fill:none;stroke:#000000;stroke-width:0.9375;stroke-linecap:round;stroke-linejoin:round;stroke-miterlimit:10;stroke-opacity:1" />
    <path
       d="m 26.020356,733.27158 9.0039,0"
       id="path3676"
       style="fill:none;stroke:#000000;stroke-width:0.9375;stroke-linecap:round;stroke-linejoin:round;stroke-miterlimit:10;stroke-opacity:1" />
    <g
       transform="matrix(1.25,0,0,1.25,-55.865297,306.38004)"
       id="g3678"
       style="fill:#000000;fill-opacity:1">
      <use
         id="use3680"
         x="402.35156"
         y="260.98242"
         width="744.09448"
         height="1052.3622"
         xlink:href="#glyph0-0" />
      <use
         id="use3682"
         x="411.24805"
         y="260.98242"
         width="744.09448"
         height="1052.3622"
         xlink:href="#glyph0-1" />
      <use
         id="use3684"
         x="415.69629"
         y="260.98242"
         width="744.09448"
         height="1052.3622"
         xlink:href="#glyph0-2" />
    </g>
    <g
       transform="matrix(1.25,0,0,1.25,-55.865297,306.38004)"
       id="g3686"
       style="fill:#000000;fill-opacity:1">
      <use
         id="use3688"
         x="402.35156"
         y="215.75195"
         width="744.09448"
         height="1052.3622"
         xlink:href="#glyph0-0" />
      <use
         id="use3690"
         x="411.24805"
         y="215.75195"
         width="744.09448"
         height="1052.3622"
         xlink:href="#glyph0-1" />
      <use
         id="use3692"
         x="415.69629"
         y="215.75195"
         width="744.09448"
         height="1052.3622"
         xlink:href="#glyph0-3" />
    </g>
    <g
       transform="matrix(1.25,0,0,1.25,-55.865297,306.38004)"
       id="g3694"
       style="fill:#000000;fill-opacity:1">
      <use
         id="use3696"
         x="402.35156"
         y="170.51758"
         width="744.09448"
         height="1052.3622"
         xlink:href="#glyph0-0" />
      <use
         id="use3698"
         x="411.24805"
         y="170.51758"
         width="744.09448"
         height="1052.3622"
         xlink:href="#glyph0-1" />
      <use
         id="use3700"
         x="415.69629"
         y="170.51758"
         width="744.09448"
         height="1052.3622"
         xlink:href="#glyph0-4" />
    </g>
    <g
       transform="matrix(1.25,0,0,1.25,-55.865297,306.38004)"
       id="g3702"
       style="fill:#000000;fill-opacity:1">
      <use
         id="use3704"
         x="402.35156"
         y="125.28711"
         width="744.09448"
         height="1052.3622"
         xlink:href="#glyph0-0" />
      <use
         id="use3706"
         x="411.24805"
         y="125.28711"
         width="744.09448"
         height="1052.3622"
         xlink:href="#glyph0-1" />
      <use
         id="use3708"
         x="415.69629"
         y="125.28711"
         width="744.09448"
         height="1052.3622"
         xlink:href="#glyph0-5" />
    </g>
    <g
       transform="matrix(1.25,0,0,1.25,-55.865297,306.38004)"
       id="g3710"
       style="fill:#000000;fill-opacity:1">
      <use
         id="use3712"
         x="402.35156"
         y="80.056641"
         width="744.09448"
         height="1052.3622"
         xlink:href="#glyph0-0" />
      <use
         id="use3714"
         x="411.24805"
         y="80.056641"
         width="744.09448"
         height="1052.3622"
         xlink:href="#glyph0-1" />
      <use
         id="use3716"
         x="415.69629"
         y="80.056641"
         width="744.09448"
         height="1052.3622"
         xlink:href="#glyph0-6" />
    </g>
    <g
       transform="matrix(1.25,0,0,1.25,-55.865297,306.38004)"
       id="g3718"
       style="fill:#000000;fill-opacity:1">
      <use
         id="use3720"
         x="402.35156"
         y="34.826172"
         width="744.09448"
         height="1052.3622"
         xlink:href="#glyph0-0" />
      <use
         id="use3722"
         x="411.24805"
         y="34.826172"
         width="744.09448"
         height="1052.3622"
         xlink:href="#glyph0-1" />
      <use
         id="use3724"
         x="415.69629"
         y="34.826172"
         width="744.09448"
         height="1052.3622"
         xlink:href="#glyph0-7" />
    </g>
    <text
       x="39.436558"
       y="1024.4814"
       id="text4356"
       xml:space="preserve"
       style="font-size:24px;font-style:normal;font-weight:normal;line-height:125%;letter-spacing:0px;word-spacing:0px;fill:#000000;fill-opacity:1;stroke:none;font-family:Sans"><tspan
         x="39.436558"
         y="1024.4814"
         id="tspan4358">0.3</tspan></text>
    <text
       x="39.96677"
       y="967.88019"
       id="text4356-0"
       xml:space="preserve"
       style="font-size:24px;font-style:normal;font-weight:normal;line-height:125%;letter-spacing:0px;word-spacing:0px;fill:#000000;fill-opacity:1;stroke:none;font-family:Sans"><tspan
         x="39.96677"
         y="967.88019"
         id="tspan4358-7">0.4</tspan></text>
    <text
       x="40.672337"
       y="911.35223"
       id="text4356-0-1"
       xml:space="preserve"
       style="font-size:24px;font-style:normal;font-weight:normal;line-height:125%;letter-spacing:0px;word-spacing:0px;fill:#000000;fill-opacity:1;stroke:none;font-family:Sans"><tspan
         x="40.672337"
         y="911.35223"
         id="tspan4358-7-5">0.5</tspan></text>
    <text
       x="40.672337"
       y="855.35223"
       id="text4356-0-1-4"
       xml:space="preserve"
       style="font-size:24px;font-style:normal;font-weight:normal;line-height:125%;letter-spacing:0px;word-spacing:0px;fill:#000000;fill-opacity:1;stroke:none;font-family:Sans"><tspan
         x="40.672337"
         y="855.35223"
         id="tspan4358-7-5-8">0.6</tspan></text>
    <text
       x="40.672337"
       y="799.35223"
       id="text4356-0-1-4-0"
       xml:space="preserve"
       style="font-size:24px;font-style:normal;font-weight:normal;line-height:125%;letter-spacing:0px;word-spacing:0px;fill:#000000;fill-opacity:1;stroke:none;font-family:Sans"><tspan
         x="40.672337"
         y="799.35223"
         id="tspan4358-7-5-8-4">0.7</tspan></text>
    <text
       x="40.672337"
       y="741.35223"
       id="text4356-0-1-4-0-5"
       xml:space="preserve"
       style="font-size:24px;font-style:normal;font-weight:normal;line-height:125%;letter-spacing:0px;word-spacing:0px;fill:#000000;fill-opacity:1;stroke:none;font-family:Sans"><tspan
         x="40.672337"
         y="741.35223"
         id="tspan4358-7-5-8-4-9">0.8</tspan></text>
  </g>
</svg>
